<svg fill="none" height="100" viewBox="0 0 100 100" width="100" xmlns="http://www.w3.org/2000/svg" xmlns:xlink="http://www.w3.org/1999/xlink"><clipPath id="a"><path d="m0 0h100v100h-100z"/></clipPath><g clip-path="url(#a)"><path d="m50 99.5c27.3381 0 49.5-22.1619 49.5-49.5s-22.1619-49.5-49.5-49.5-49.5 22.1619-49.5 49.5 22.1619 49.5 49.5 49.5z" stroke="#000"/><path d="m50 96.5c25.6812 0 46.5-20.8188 46.5-46.5s-20.8188-46.5-46.5-46.5-46.5 20.8188-46.5 46.5 20.8188 46.5 46.5 46.5z" stroke="#000"/><path d="m50 77.5c15.1878 0 27.5-12.3122 27.5-27.5s-12.3122-27.5-27.5-27.5-27.5 12.3122-27.5 27.5 12.3122 27.5 27.5 27.5z" stroke="#000"/><path d="m50 74.5c13.531 0 24.5-10.969 24.5-24.5s-10.969-24.5-24.5-24.5-24.5 10.969-24.5 24.5 10.969 24.5 24.5 24.5z" stroke="#000"/><path d="m85.7537 61.0811c.8284 0 1.5-.6716 1.5-1.5 0-.8285-.6716-1.5-1.5-1.5-.8285 0-1.5.6715-1.5 1.5 0 .8284.6715 1.5 1.5 1.5z" stroke="#000"/><path d="m14.2446 61.0801c.8285 0 1.5-.6716 1.5-1.5s-.6715-1.5-1.5-1.5c-.8284 0-1.5.6716-1.5 1.5s.6716 1.5 1.5 1.5z" stroke="#000"/><g fill="#000"><path d="m62.9478 45.8952c.5101-3.7898-2.3652-5.7684-6.3072-7.106l1.2243-5.1275-3.1165-.7524-1.1872 5.0161c-.8255-.1951-1.6603-.3902-2.4858-.5574l1.1873-5.016-3.1536-.7524-1.2243 5.1275c-.6679-.1579-1.3449-.2787-2.0128-.4366l-4.2944-1.0311-.7884 3.3162s2.3281.5109 2.2446.5573c1.2614.3158 1.5026 1.1425 1.4562 1.7742l-1.382 5.8427c.0835.0372.1948.0372.3154.1208-.1206-.0372-.1948-.0372-.3154-.0743l-1.8921 8.1742c-.1577.3901-.5565.9475-1.4191.7524.0371.0371-2.291-.5574-2.291-.5574l-1.4748 3.5949 4.0626.9474c.7513.1951 1.5026.353 2.2075.5574l-1.2244 5.1739 3.1165.7524 1.2243-5.1275c.8719.2322 1.6974.4366 2.4858.6316l-1.2243 5.0904 3.1165.7524 1.2243-5.174c5.324.9475 9.3031.5109 10.917-4.3472 1.2985-3.8734-.1206-6.0842-2.9588-7.5425 2.0776-.4738 3.5802-1.8207 3.9698-4.5795zm-7.0121 10.0599c-.909 3.8735-7.448 1.8578-9.5443 1.3469l1.6139-6.8738c2.1333.5202 8.8764 1.4677 7.9304 5.5269zm.8626-10.0599c-.8255 3.5112-6.2701 1.8207-8.0417 1.3841l1.5026-6.2329c1.7345.4273 7.4109 1.1797 6.5391 4.8488z"/><path d="m24.7351 75.7886c1.0676-1.2044.973-2.7375-.0614-3.946-1.2189-1.4241-3.1752-1.6084-4.9374-.1001-1.7595 1.506-1.8935 3.4562-.6632 4.8937 1.1095 1.2963 2.6839 1.4384 3.8546.6993l-.8468-1.0001c-.7459.4217-1.5518.2076-2.11-.4446-.7564-.8838-.6359-2.0846.6152-3.1554 1.2298-1.0526 2.4516-1.0099 3.2149-.1182.5673.6629.6362 1.5032.082 2.1758z"/><path d="m30.6617 81.8685c1.3751-1.8679 1.0453-3.8076-.4699-4.923-1.5181-1.1176-3.4653-.8543-4.8404 1.0136-1.3731 1.8651-1.0482 3.8055.4699 4.9231 1.5152 1.1154 3.4652.8542 4.8404-1.0137zm-1.0525-.7748c-.968 1.3149-2.1538 1.5427-3.0962.8489-.9396-.6918-1.0772-1.8938-.1092-3.2087.968-1.3148 2.1567-1.5406 3.0963-.8488.9424.6938 1.0771 1.8937.1091 3.2086z"/><path d="m33.9602 79.7176-2.673 6.6593 1.1576.4646 1.8403-4.5848.0618.0248.0079 5.304.865.3472 3.6689-3.8168.0618.0248-1.8364 4.5751 1.1576.4646 2.673-6.6593-1.4762-.5926-3.9139 4.0319-.078-.0313-.0401-5.619z"/><path d="m42.5243 82.9247-.775 7.1338 1.2401.1347.5335-4.9114.0662.0072 1.4403 5.1047.9265.1006 2.5017-4.6659.0662.0072-.5324 4.901 1.24.1347.775-7.1338-1.5814-.1718-2.6794 4.9392-.0836-.0091-1.5563-5.3993z"/><path d="m56.1884 83.013.6207 4.5372c.1221.8922-.4119 1.6159-1.3874 1.7494-.979.1339-1.6843-.4203-1.8063-1.3125l-.6207-4.5371-1.2879.1761.6354 4.6448c.209 1.5275 1.4975 2.4157 3.2367 2.1777 1.7322-.2369 2.7418-1.4395 2.5329-2.967l-.6355-4.6448z"/><path d="m64.6417 80.337-1.2116.4511 1.7068 4.5839-.0591.022-4.8722-3.4053-1.0901.4059 2.5039 6.7247 1.2182-.4536-1.7055-4.5805.0558-.0208 4.8742 3.4008 1.0835-.4035z"/><path d="m67.3047 78.7138-1.127.6477 3.5755 6.2215 1.1271-.6477z"/><path d="m69.3704 78.8543 1.7326-1.3846 3.7995 4.7544 1.0073-.805-3.7995-4.7544 1.7326-1.3846-.6803-.8512-4.4725 3.5741z"/><path d="m73.8333 73.8233 5.132.8465 2.0658 1.7024.8245-1.0005-2.0659-1.7024-1.8119-4.8755-.9336 1.133 1.3335 3.3735-.0446.0541-3.5661-.6641z"/><path d="m16.771 46.8344.4904-2.8629c.2774-1.6197-.4119-2.5554-1.5136-2.7441-1.0705-.1834-1.8292.4687-1.9962 1.2151l-.069-.0119c-.044-.7185-.4341-1.3469-1.294-1.4942-1.0533-.1805-1.9639.4456-2.2266 1.979l-.46376 2.7075zm-.8511-1.4646-2.0721-.3549.2419-1.4125c.1355-.7909.703-1.1985 1.335-1.0902.5629.0964.8903.5507.7312 1.4796zm-2.9942-.5129-1.9512-.3342.2218-1.2951c.129-.7528.593-1.0751 1.1386-.9816.6216.1065.9221.677.8079 1.3435z"/><path d="m12.3275 35.2116-.4555 1.2175 6.7209 2.5142.4555-1.2175z"/><path d="m14.8464 32.0333 1.1516-1.8955 5.2014 3.1601.6694-1.102-5.2014-3.16 1.1516-1.8955-.9313-.5658-2.9726 4.893z"/><path d="m25.3574 20.7796c-1.2834-.9712-2.8046-.7581-3.9294.3667-1.3255 1.3255-1.3577 3.2902.2824 4.9303 1.6377 1.6377 3.5925 1.6203 4.9304.2824 1.2065-1.2065 1.2263-2.7872.3988-3.8972l-.9315.9217c.4781.7111.327 1.5311-.28 2.1381-.8225.8226-2.0291.7953-3.1935-.3691-1.1447-1.1447-1.1967-2.3661-.3667-3.1961.6169-.6169 1.4493-.7507 2.1629-.2502z"/><path d="m34.5603 16.3427c-1.153-2.0126-3.0606-2.4946-4.6931-1.5592-1.6357.9371-2.1815 2.8247-1.0284 4.8373 1.1513 2.0095 3.0575 2.4963 4.6931 1.5592 1.6326-.9354 2.1815-2.8247 1.0284-4.8373zm-1.1339.6497c.8117 1.4167.5409 2.5935-.4745 3.1752-1.0124.58-2.1675.2202-2.9792-1.1965s-.5379-2.5952.4745-3.1752c1.0154-.5818 2.1675-.2202 2.9792 1.1965z"/><path d="m38.0279 11.3419-1.2354.4043 2.2317 6.8199 1.2354-.4043z"/><path d="m48.168 9.47461-1.2841.15084.5707 4.85785-.0627.0074-3.9252-4.4638-1.1553.1357.8372 7.1268 1.291-.1517-.5703-4.8544.0592-.007 3.9283 4.46 1.1484-.1349z"/><path d="m58.3915 17.8205c2.1103.5715 3.7152-.395 4.3014-2.5595.5844-2.1577-.3152-3.7952-2.3782-4.354l-2.3944-.6484-1.8759 6.9262zm-.7984-1.3815 1.2878-4.755 1.0687.2894c1.4069.3811 1.9283 1.3644 1.4987 2.9506-.4314 1.5929-1.3796 2.1855-2.8237 1.7944z"/><path d="m64.2128 19.8113 4.098 2.2912.5318-.9511-2.9634-1.6569.9558-1.7095 2.7279 1.5252.5318-.9511-2.7279-1.5252.9507-1.7004 2.9389 1.6432.5318-.9511-4.0736-2.2776z"/><path d="m76.9605 22.4966.9244.8426c.7986-.9125.613-2.2432-.516-3.2723-1.1135-1.0149-2.5211-1.1507-3.3729-.2109-.694.7613-.5517 1.6922.1156 2.7129l.4617.7053c.4401.6667.6553 1.19.2826 1.6041-.4156.4507-1.1216.3619-1.7483-.2093-.6007-.5476-.8214-1.2418-.3527-1.8339l-.9452-.8615c-.9218 1.0893-.6777 2.3974.5574 3.5233 1.2715 1.159 2.5877 1.1972 3.4424.2648.8354-.9216.459-2.0327-.1662-2.9487l-.3839-.5775c-.3406-.5001-.6443-1.1135-.2355-1.5516.3661-.3964.9901-.3633 1.5909.1843.5723.5216.7072 1.133.3457 1.6284z"/><path d="m82.7086 26.1802-.7799-1.0399-5.7406 4.3054.7799 1.0399z"/><path d="m85.2076 35.1403.5722 1.1944c1.1749-.8077 1.5328-2.3312.847-3.7626-.8115-1.6937-2.665-2.3674-4.7505-1.3683-2.0476.9811-2.7365 2.8031-1.8811 4.5884.7675 1.602 2.3472 2.2555 4.0156 1.4561l.7773-.3724-1.2581-2.6258-.9163.439.7146 1.4914c-.9318.4232-1.8116.0871-2.2779-.8862-.5193-1.0838-.063-2.2154 1.4032-2.9179 1.4567-.6979 2.6274-.3303 3.1285.7156.374.7805.2112 1.5112-.3745 2.0483z"/><path d="m90.3173 45.4916-.2354-1.2713-4.8096.8905-.0114-.062 4.1946-4.2117-.2118-1.1438-7.0559 1.3064.2367 1.2782 4.8061-.8899.0108.0586-4.1905 4.2145.2105 1.1369z"/></g></g></svg>