<svg fill="none" height="63" viewBox="0 0 75 63" width="75" xmlns="http://www.w3.org/2000/svg" xmlns:xlink="http://www.w3.org/1999/xlink"><clipPath id="a"><path d="m0 0h62.9146v48h-62.9146z" transform="matrix(.96592583 -.25881905 .25881905 .96592583 .90332 16.4595)"/></clipPath><g clip-path="url(#a)"><path d="m65.3412 34.5669c.2746 1.0247.1308 2.1165-.3996 3.0353-.5304.9187-1.4041 1.5891-2.4288 1.8637l-39.2865 6.2116-5.6569 9.798-8.28217-30.9096c-.27457-1.0248-.13083-2.1166.3996-3.0353.53047-.9188 1.40407-1.5892 2.42887-1.8637l43.1501-7.247c1.0248-.2745 2.1166-.1308 3.0353.3996.9188.5305 1.5892 1.4041 1.8637 2.4289z" fill="#ff5f45"/><path d="m16.3246 32.4446-.469-2.3212c.5008.4567.9793.639 1.4356.5468.1723-.0348.3036-.1079.3941-.2191.0898-.1145.1208-.2403.0931-.3775-.04-.1978-.1971-.367-.4712-.5076l-.3767-.1879c-.2499-.1189-.4675-.2426-.6529-.3712-.186-.1318-.344-.2725-.4739-.4223-.1305-.153-.2365-.3159-.3179-.4887-.0814-.1729-.1424-.3598-.1831-.5608-.0696-.3446-.0627-.7213.0208-1.13.0443-.1916.1046-.3699.1809-.5347.0756-.1681.1707-.3218.2854-.4612.312-.3951.7344-.6465 1.2673-.7542.4754-.0961.9795-.0667 1.5122.088l.4565 2.259c-.2137-.2192-.4387-.3796-.6751-.4813-.2371-.1049-.4561-.137-.6571-.0964-.1532.031-.2702.1011-.351.2104-.0847.1068-.1148.2208-.0903.3421.0399.1978.2152.3666.5257.5065l.3633.1707c.4824.218.8468.4681 1.0931.7505.2496.2817.4175.6363.5039 1.0638.147.7275.0465 1.3722-.3016 1.934-.3481.5619-.862.9114-1.5416 1.0488-.469.0947-.9925.0926-1.5705-.0065zm9.7432-1.7794-2.0628.4168-.338-.9081-1.3448.2718.0268.9709-2.0628.4168.2824-7.7485 2.4409-.4932zm-2.9554-2.0281-.3033-.8354c-.0038-.0025-.0189-.0443-.0452-.1253-.0206-.0689-.1102-.3398-.2688-.8125-.0174-.0529-.0402-.1247-.0684-.2153-.0289-.0938-.0659-.2109-.1108-.3512l-.2035-.6862c.0072.0683.0128.1452.0168.2307.0072.0849.0144.1781.0216.2796.0176.2023.0294.3428.0353.4213s.0089.126.0089.1426l.0421.9231.033 1.1988zm6.5547 1.3008-2.0341.411-3.1874-7.0473 2.0963-.4236.7902 2.0371c.3003.7796.5928 1.6603.8776 2.6422-.0545-.4506-.0953-.8741-.1222-1.2704-.027-.3964-.0424-.7852-.0464-1.1663l-.0203-2.5414 2.1681-.4381zm2.3358-.4719-1.4932-7.3898 3.7092-.7494.3511 1.7373-1.7134.3462.2176 1.0769 1.5363-.3104.3375 1.6703-1.5363.3104.2282 1.1295 1.7134-.3462.3588 1.7757zm11.8125-6.2077c.2276 1.1263.1558 2.094-.2154 2.9029-.3687.8051-.9631 1.2905-1.7831 1.4562-.7275.147-1.4057.0035-2.0348-.4307-.792-.5506-1.326-1.5088-1.602-2.8744-.2643-1.3082-.125-2.3775.4179-3.2078.4035-.6163.9531-.9946 1.6486-1.1352.852-.1721 1.6003.0387 2.245.6324.6446.5937 1.0859 1.4792 1.3238 2.6566zm-2.0694.4331c-.2702-1.3369-.6414-1.9577-1.1136-1.8622-.2361.0477-.3889.2612-.4584.6406-.0714.3531-.0433.8456.0844 1.4774.1257.6222.2872 1.0927.4844 1.4115.1998.3149.4146.4492.6443.4028.2361-.0477.3838-.2536.4431-.6176.0657-.3653.0376-.8494-.0842-1.4525zm4.9939-4.8946 1.9958-.4033 1.0561 5.2264c.0883.4371.0913.8052.0089 1.1041-.0767.311-.2481.613-.5144.9059-.3593.3915-.8404.6481-1.4435.7699-.6828.138-1.2897.0846-1.8207-.1601-.6741-.3121-1.1069-.942-1.2984-1.8896l-.999-4.9441 1.9958-.4032.9632 4.7669c.0651.3223.1495.5427.2531.6612.1069.1179.2528.1581.4379.1207.1915-.0386.3113-.1276.3595-.2669.047-.1456.0369-.3844-.0301-.7162zm9.5866 5.7543-2.1585.4362-1.5178-2.4332c-.0186-.0427-.0481-.0982-.0884-.1664-.0372-.0689-.0836-.1508-.1394-.2458l.113.4852.5222 2.5845-1.9862.4014-1.4931-7.3897 2.0436-.413c.8998-.1818 1.6088-.1408 2.1271.1232.6595.3383 1.0737.9254 1.2426 1.7614.1805.8934-.076 1.5878-.7696 2.0833zm-4.061-3.3091.134-.027c.2298-.0465.4035-.1729.5212-.3793.1177-.2065.1491-.4453.0943-.7165-.1115-.552-.4561-.7696-1.0336-.653l-.0718.0146zm-23.3719 18.0341-1.924.3888-.9826-2.4965c-.1906-.4829-.3453-.9033-.4641-1.2612-.0591-.1773-.1088-.325-.1493-.443-.0404-.1181-.0703-.2083-.0896-.2709.0105.1341.0359.383.0762.7468.0208.1851.0403.3804.0586.5859.0183.2056.034.4232.0473.653l.1634 2.7566-1.9431.3927-3.1396-7.0571 1.9719-.3984.7364 1.9683c.2882.7853.503 1.4045.6443 1.8574l.2034.6613-.0548-.5916c-.0697-.69-.1134-1.3504-.1313-1.9811l-.0531-2.1861 1.7182-.3471.6938 1.7079c.3265.7942.6629 1.7441 1.0092 2.8497-.0674-.5144-.12-.972-.1579-1.3728-.0378-.4009-.0634-.766-.0768-1.0954l-.0995-2.366 1.9479-.3936zm7.1459-1.4439-2.0628.4168-.338-.9081-1.3448.2718.0268.9709-2.0628.4168.2824-7.7485 2.4409-.4932zm-2.9554-2.0281-.3033-.8354c-.0038-.0025-.0189-.0443-.0452-.1253-.0206-.0689-.1102-.3397-.2688-.8125-.0174-.0529-.0402-.1247-.0684-.2153-.0289-.0938-.0659-.2109-.1108-.3512l-.2035-.6862c.0072.0683.0128.1452.0168.2307.0072.0849.0144.1781.0216.2796.0176.2023.0294.3428.0353.4213s.0089.126.0089.1426l.0421.9231.033 1.1988zm6.8371 1.2438-3.4939.7059-1.4931-7.3897 1.9958-.4032 1.1343 5.614 1.4981-.3027zm3.8912-.7863-3.4938.706-1.4932-7.3897 1.9958-.4033 1.1344 5.6141 1.4981-.3027zm.3975-.0803-1.4932-7.3897 3.7092-.7495.3511 1.7373-1.7134.3463.2176 1.0768 1.5363-.3104.3375 1.6703-1.5363.3105.2282 1.1295 1.7134-.3462.3588 1.7756zm6.9496-1.4042-1.9958.4032-1.1354-5.6188-1.1008.2224-.3578-1.7709 4.2405-.8568.3578 1.7709-1.1439.2311zm1.4327-.4788-.469-2.3213c.5008.4568.9793.639 1.4356.5468.1723-.0348.3036-.1078.3941-.2191.0898-.1144.1208-.2403.0931-.3775-.04-.1978-.1971-.367-.4712-.5075l-.3767-.1879c-.2499-.1189-.4675-.2426-.6529-.3712-.186-.1318-.344-.2726-.4739-.4224-.1305-.1529-.2365-.3158-.3179-.4887-.0814-.1728-.1424-.3597-.1831-.5607-.0696-.3446-.0627-.7213.0208-1.1301.0443-.1916.1046-.3698.1809-.5347.0756-.168.1707-.3217.2854-.4611.312-.3952.7345-.6466 1.2673-.7543.4754-.096.9795-.0667 1.5122.088l.4565 2.2591c-.2137-.2192-.4387-.3797-.6751-.4813-.2371-.1049-.4561-.137-.6571-.0964-.1532.0309-.2702.1011-.351.2104-.0847.1068-.1148.2208-.0903.342.0399.1979.2152.3667.5257.5065l.3633.1707c.4824.218.8468.4682 1.0932.7505.2495.2817.4175.6363.5038 1.0639.147.7275.0465 1.3721-.3016 1.934-.3481.5618-.862.9114-1.5416 1.0487-.469.0948-.9925.0926-1.5705-.0064z" fill="#fff"/></g></svg>